<svg width="510" height="487" viewBox="0 0 510 487" fill="none" xmlns="http://www.w3.org/2000/svg">
<path d="M1 1V51H165V297H1V406H205V1H1Z" fill="black"/>
<path d="M213 1V406H509.5V356H269.5V1H213Z" fill="black"/>
<path d="M279.5 1V344.5H509.5V297H333.5V51H509.5V1H279.5Z" fill="black"/>
<path d="M87.5 454V465.5H116V454H87.5Z" fill="black"/>
<path d="M134.5 447.5L138.5 459L154.5 454V479H165.5L166.5 450.5L182.5 445L179 434L134.5 447.5Z" fill="black"/>
<path d="M189 434.5V450.5H200V445.5L222 445C218.167 451.5 207.1 466.7 193.5 475.5L203.5 481C210.333 477 226.3 464.3 235.5 445.5V434.5H217.5V429.5H207.5V434L189 434.5Z" fill="black"/>
<path d="M248 434V445H258.5V482H270V445H282.5C281.167 446.667 277 450.5 271 452.5L277 460.5C280.5 459 289.1 453.8 295.5 445V434H248Z" fill="black"/>
<path d="M306 476L344 439L352.5 447.5L314.5 485.5L306 476Z" fill="black"/>
<path d="M304.5 441L311.5 435L321.5 446.5L314.5 452.5L304.5 441Z" fill="black"/>
<path d="M371.5 454H399.5V465.5H371.5V454Z" fill="black"/>
<path d="M223 423V429.5H227.5V423H223Z" fill="black"/>
<path d="M230.5 423V429.5H235V423H230.5Z" fill="black"/>
<path d="M1 1V51H165V297H1V406H205V1H1Z" stroke="black"/>
<path d="M213 1V406H509.5V356H269.5V1H213Z" stroke="black"/>
<path d="M279.5 1V344.5H509.5V297H333.5V51H509.5V1H279.5Z" stroke="black"/>
<path d="M87.5 454V465.5H116V454H87.5Z" stroke="black"/>
<path d="M134.5 447.5L138.5 459L154.5 454V479H165.5L166.5 450.5L182.5 445L179 434L134.5 447.5Z" stroke="black"/>
<path d="M189 434.5V450.5H200V445.5L222 445C218.167 451.5 207.1 466.7 193.5 475.5L203.5 481C210.333 477 226.3 464.3 235.5 445.5V434.5H217.5V429.5H207.5V434L189 434.5Z" stroke="black"/>
<path d="M248 434V445H258.5V482H270V445H282.5C281.167 446.667 277 450.5 271 452.5L277 460.5C280.5 459 289.1 453.8 295.5 445V434H248Z" stroke="black"/>
<path d="M306 476L344 439L352.5 447.5L314.5 485.5L306 476Z" stroke="black"/>
<path d="M304.5 441L311.5 435L321.5 446.5L314.5 452.5L304.5 441Z" stroke="black"/>
<path d="M371.5 454H399.5V465.5H371.5V454Z" stroke="black"/>
<path d="M223 423V429.5H227.5V423H223Z" stroke="black"/>
<path d="M230.5 423V429.5H235V423H230.5Z" stroke="black"/>
</svg>
